<svg xmlns="http://www.w3.org/2000/svg" width="16" height="13.004" viewBox="0 0 16 13.004">
  <path id="twitter" d="M16,1.54a6.57,6.57,0,0,1-1.885.517A3.3,3.3,0,0,0,15.559.241a6.568,6.568,0,0,1-2.085.8A3.284,3.284,0,0,0,7.88,4.031,9.323,9.323,0,0,1,1.115.6,3.287,3.287,0,0,0,2.131,4.984,3.277,3.277,0,0,1,.645,4.573a3.287,3.287,0,0,0,2.633,3.26A3.29,3.29,0,0,1,1.8,7.889a3.287,3.287,0,0,0,3.067,2.279A6.606,6.606,0,0,1,0,11.529,9.284,9.284,0,0,0,5.031,13a9.284,9.284,0,0,0,9.331-9.765A6.618,6.618,0,0,0,16,1.54Z" fill="#fff"/>
</svg>
